<svg aria-hidden="true" style="position: absolute; width: 0; height: 0; overflow: hidden;" version="1.1" xmlns="http://www.w3.org/2000/svg" xmlns:xlink="http://www.w3.org/1999/xlink">
<defs>
<symbol id="icon-googlesheets" viewBox="0 0 32 32">
<path fill="#fff" style="fill: var(--color1, #fff)" d="M15.091 16.727h-4.544v-2.545h4.547v2.547l-0.003-0.001zM19.637 0v8h8l-8-8zM21.455 14.181h-4.547v2.547h4.547v-2.547zM21.455 18.545h-4.547v2.547h4.547v-2.547zM27.636 8.667v21.152c0 1.205-0.976 2.181-2.181 2.181h-18.909c-0.286 0-0.57-0.056-0.835-0.166s-0.505-0.27-0.708-0.473c-0.409-0.409-0.639-0.964-0.639-1.542v-27.637c0-1.205 0.976-2.181 2.181-2.181h12.424v8.667h8.667zM23.272 12.364h-14.545v10.545h14.547v-10.547l-0.001 0.001zM15.091 18.545h-4.544v2.547h4.547v-2.547h-0.003z"></path>
</symbol>
<symbol id="icon-euro" viewBox="0 0 31 32">
<path fill="#777" style="fill: var(--color1, #777)" d="M19.2 28.16c-2.517 0-4.757-0.715-6.72-2.144s-3.349-3.275-4.16-5.536h-4.48v-2.56h3.904c-0.064-0.512-0.090-0.986-0.079-1.423s0.038-0.816 0.079-1.137h-3.904v-2.56h4.48c0.811-2.261 2.197-4.107 4.16-5.536s4.203-2.144 6.72-2.144c1.472 0 2.864 0.262 4.177 0.785s2.48 1.243 3.503 2.159l-1.824 1.792c-0.789-0.683-1.68-1.216-2.671-1.6s-2.053-0.576-3.185-0.576c-1.813 0-3.435 0.475-4.864 1.425s-2.507 2.182-3.232 3.695h8.096v2.56h-8.864c-0.085 0.576-0.117 1.083-0.096 1.521s0.053 0.784 0.096 1.039h8.864v2.56h-8.096c0.725 1.515 1.803 2.747 3.232 3.697s3.051 1.424 4.864 1.423c1.131 0 2.192-0.192 3.185-0.576s1.883-0.917 2.671-1.6l1.824 1.792c-1.024 0.917-2.192 1.637-3.505 2.161s-2.704 0.784-4.175 0.783z"></path>
</symbol>
<symbol id="icon-uah" viewBox="0 0 32 32">
<path fill="#777" style="fill: var(--color1, #777)" d="M19.453 14.667h4.547v-2.667h-2.24c0.56-0.88 0.907-1.76 0.907-2.667 0-3.507-3.333-5.333-6.667-5.333-3.133 0-5.96 2.747-6.28 3.053l1.893 1.893c0.64-0.64 2.667-2.28 4.387-2.28 1.387 0 4 0.56 4 2.667 0 0.667-0.667 1.653-1.653 2.667h-10.347v2.667h7.507c-0.56 0.48-2.507 2.227-2.96 2.667h-4.547v2.667h2.24c-0.56 0.88-0.907 1.76-0.907 2.667 0 3.507 3.333 5.333 6.667 5.333 3.133 0 5.96-2.747 6.28-3.053l-1.893-1.893c-0.627 0.64-2.667 2.28-4.387 2.28-1.387 0-4-0.56-4-2.667 0-0.667 0.667-1.653 1.653-2.667h10.347v-2.667h-7.493l2.947-2.667z"></path>
</symbol>
<symbol id="icon-paw" viewBox="0 0 32 32">
<path d="M19.674 1.217c-1.177 2.063-1.486 4.555 0.367 4.348 1.504-0.168 1.022-2.519-0.367-4.348h-0zM12.035 1.467c-1.068 2.112-1.247 4.616 0.594 4.326 1.494-0.235 0.889-2.561-0.594-4.326v0zM25.918 6.176c-1.372 1.898-1.919 4.332-0.051 4.355 1.516 0.020 1.26-2.371 0.051-4.356v0zM6.039 6.379c-1.045 2.057-1.102 4.449 0.414 4.322 1.867-0.156 1.117-2.534-0.414-4.322zM19.639 6.902c-3.476 0.141-3.145 7.42 0.162 7.287 3.251-0.13 3.257-7.426-0.162-7.287v-0zM12.945 7.018c-0.052 0.001-0.103 0.005-0.156 0.010-3.464 0.299-2.745 7.553 0.551 7.27 3.19-0.274 2.867-7.339-0.395-7.279zM7.766 12.233c-0.103-0.001-0.206 0.005-0.309 0.018-3.447 0.437-2.389 7.657 0.891 7.242 3.123-0.394 2.54-7.224-0.582-7.26zM25.18 12.316c-3.478-0.064-3.655 7.219-0.346 7.281 3.253 0.062 3.768-7.218 0.346-7.281zM16.117 16.518c-3.564 0.079-0.812 3.762-7.111 5.903-4.883 1.659-1.925 6.658 2.254 6.676 2.294 0.010 3.113-1.801 4.99-1.793 2.132 0.009 2.303 1.633 5.424 1.647 3.985 0.016 6.291-5.013 1.732-6.721-5.805-2.175-3.375-5.674-7.113-5.711-0.060-0.001-0.119-0.001-0.176-0z"></path>
</symbol>
<symbol id="icon-car" viewBox="0 0 32 32">
<path stroke-linejoin="round" stroke-linecap="round" stroke-miterlimit="4" stroke-width="2.7429" d="M20.935 24.891v-15.511c0-0.606-0.241-1.188-0.669-1.616s-1.010-0.669-1.616-0.669h-14.759c-0.606 0-1.188 0.241-1.616 0.669s-0.669 1.010-0.669 1.616v15.145c0 0.606 0.241 1.188 0.669 1.616s1.010 0.669 1.616 0.669h1.714M30.395 17.913h-9.458M27.319 26.384h0.789c0.606 0 1.188-0.241 1.616-0.669s0.669-1.010 0.669-1.616v-6.857l-3.184-6.521c-0.188-0.384-0.48-0.707-0.843-0.934s-0.782-0.346-1.209-0.346h-3.81"></path>
<path stroke-linejoin="round" stroke-linecap="round" stroke-miterlimit="4" stroke-width="2.7429" d="M19.605 26.811h-6.713M5.719 26.88c0 0.846 0.336 1.658 0.935 2.256s1.41 0.935 2.256 0.935c0.846 0 1.658-0.336 2.256-0.935s0.935-1.41 0.935-2.256c0-0.846-0.336-1.658-0.935-2.256s-1.41-0.935-2.256-0.935c-0.846 0-1.658 0.336-2.256 0.935s-0.935 1.41-0.935 2.256zM20.203 26.88c0 0.419 0.083 0.834 0.243 1.221s0.395 0.739 0.692 1.035 0.648 0.531 1.035 0.692c0.387 0.16 0.802 0.243 1.221 0.243s0.834-0.083 1.221-0.243c0.387-0.16 0.739-0.395 1.035-0.692s0.531-0.648 0.692-1.035c0.16-0.387 0.243-0.802 0.243-1.221s-0.083-0.834-0.243-1.221c-0.16-0.387-0.395-0.739-0.692-1.035s-0.648-0.531-1.035-0.692c-0.387-0.16-0.802-0.243-1.221-0.243s-0.834 0.083-1.221 0.243c-0.387 0.16-0.739 0.395-1.035 0.692s-0.531 0.648-0.692 1.035c-0.16 0.387-0.243 0.802-0.243 1.221z"></path>
</symbol>
</defs>
</svg>
