<svg aria-hidden="true" style="position: absolute; width: 0; height: 0; overflow: hidden;" version="1.1" xmlns="http://www.w3.org/2000/svg" xmlns:xlink="http://www.w3.org/1999/xlink">
<defs>
<symbol id="icon-googlesheets" viewBox="0 0 32 32">
<path fill="#fff" style="fill: var(--color1, #fff)" d="M15.091 16.727h-4.544v-2.545h4.547v2.547l-0.003-0.001zM19.637 0v8h8l-8-8zM21.455 14.181h-4.547v2.547h4.547v-2.547zM21.455 18.545h-4.547v2.547h4.547v-2.547zM27.636 8.667v21.152c0 1.205-0.976 2.181-2.181 2.181h-18.909c-0.286 0-0.57-0.056-0.835-0.166s-0.505-0.27-0.708-0.473c-0.409-0.409-0.639-0.964-0.639-1.542v-27.637c0-1.205 0.976-2.181 2.181-2.181h12.424v8.667h8.667zM23.272 12.364h-14.545v10.545h14.547v-10.547l-0.001 0.001zM15.091 18.545h-4.544v2.547h4.547v-2.547h-0.003z"></path>
</symbol>
<symbol id="icon-euro" viewBox="0 0 31 32">
<path fill="#777" style="fill: var(--color1, #777)" d="M19.2 28.16c-2.517 0-4.757-0.715-6.72-2.144s-3.349-3.275-4.16-5.536h-4.48v-2.56h3.904c-0.064-0.512-0.090-0.986-0.079-1.423s0.038-0.816 0.079-1.137h-3.904v-2.56h4.48c0.811-2.261 2.197-4.107 4.16-5.536s4.203-2.144 6.72-2.144c1.472 0 2.864 0.262 4.177 0.785s2.48 1.243 3.503 2.159l-1.824 1.792c-0.789-0.683-1.68-1.216-2.671-1.6s-2.053-0.576-3.185-0.576c-1.813 0-3.435 0.475-4.864 1.425s-2.507 2.182-3.232 3.695h8.096v2.56h-8.864c-0.085 0.576-0.117 1.083-0.096 1.521s0.053 0.784 0.096 1.039h8.864v2.56h-8.096c0.725 1.515 1.803 2.747 3.232 3.697s3.051 1.424 4.864 1.423c1.131 0 2.192-0.192 3.185-0.576s1.883-0.917 2.671-1.6l1.824 1.792c-1.024 0.917-2.192 1.637-3.505 2.161s-2.704 0.784-4.175 0.783z"></path>
</symbol>
<symbol id="icon-uah" viewBox="0 0 32 32">
<path fill="#777" style="fill: var(--color1, #777)" d="M19.453 14.667h4.547v-2.667h-2.24c0.56-0.88 0.907-1.76 0.907-2.667 0-3.507-3.333-5.333-6.667-5.333-3.133 0-5.96 2.747-6.28 3.053l1.893 1.893c0.64-0.64 2.667-2.28 4.387-2.28 1.387 0 4 0.56 4 2.667 0 0.667-0.667 1.653-1.653 2.667h-10.347v2.667h7.507c-0.56 0.48-2.507 2.227-2.96 2.667h-4.547v2.667h2.24c-0.56 0.88-0.907 1.76-0.907 2.667 0 3.507 3.333 5.333 6.667 5.333 3.133 0 5.96-2.747 6.28-3.053l-1.893-1.893c-0.627 0.64-2.667 2.28-4.387 2.28-1.387 0-4-0.56-4-2.667 0-0.667 0.667-1.653 1.653-2.667h10.347v-2.667h-7.493l2.947-2.667z"></path>
</symbol>
</defs>
</svg>
